<svg width="29933" height="4377" viewBox="0 0 29933 4377" fill="none" xmlns="http://www.w3.org/2000/svg">
<path d="M11715 4370.71C11339.3 4327.96 11008.2 4198.45 10720 3981.52C10522.9 3833.21 10333 3625.71 10204.8 3418.71C10085.3 3225.77 9986.24 2970.39 9945.39 2749.99C9921.45 2620.84 9914.65 2550.2 9911.75 2400.91C9907.82 2198.38 9918.89 2074.16 9956.42 1899.58C10026.7 1572.57 10213.8 1212.06 10426.4 993.731C10476.2 942.643 10476.7 941.881 10494.7 886.423C10524 796.445 10588.9 699.97 10659.8 640.869C10684.6 620.169 10697.4 604.151 10710.8 576.852C10818.6 357.539 11228.8 130.97 11681.4 40.7036C11855.4 6.00338 11913.1 0.174479 12084.9 0.00606194C12209.9 -0.116615 12245.1 1.57289 12285.3 9.64002C12351.4 22.913 12441.4 49.0211 12477.1 65.2873C12524.3 86.7469 12593.2 135.386 12623.5 168.499C12667.9 217.096 12705 299.72 12705 350.051C12705 365.999 12707.4 376.284 12711.2 376.284C12721.5 376.284 12814.9 422.845 12835 438.049C12871.2 465.344 12923 520.001 12948.6 557.77C12976.2 598.453 13013.7 670.023 13023.9 701.719C13028.9 717.128 13039.4 727.426 13074.8 751.586C13213.6 846.469 13403 1021.65 13503.4 1148.09C13733.5 1437.97 13868.3 1775.39 13907.9 2160.92C13917.1 2250.9 13915.7 2471.01 13905.2 2568.79C13848.7 3096.04 13597 3573.11 13200.2 3905.23C12895.5 4160.18 12554 4310.67 12155.3 4365.72C12065.4 4378.12 11805.9 4381.06 11715 4370.71ZM12010.8 4235.49L12008.8 4200.45L11843.7 4082.26C11752.9 4017.25 11628.7 3927.16 11567.6 3882.04C11472.7 3811.91 11455.2 3800.95 11447.2 3806.44C11442.1 3809.98 11390.3 3845.77 11332.1 3885.99C11273.9 3926.2 11200.7 3976.78 11169.3 3998.37C11110.3 4039.07 11093.5 4044.51 11078.4 4027.8C11068.6 4017.07 11007.9 3864.42 10920.7 3631.42C10842 3421.38 10816.7 3347.66 10777.7 3215.99C10774.4 3204.74 10767.9 3207.73 10663.6 3268.91C10559.8 3329.74 10391.6 3433.06 10368.4 3450.27C10358.3 3457.72 10358.6 3458.9 10377.6 3486.48C10443.1 3581.36 10617.4 3764.41 10722.7 3848.92C10949.8 4031.19 11195.9 4151.84 11477.4 4218.92C11628.3 4254.89 11747.1 4268.96 11908 4269.91L12012.7 4270.54L12010.8 4235.49ZM12198.6 4250.81C12419.8 4214.89 12671.9 4123.82 12865.5 4009.96C13016.7 3921.03 13137.6 3826.66 13264.6 3698.47L13338.3 3624.03L13311.4 3605.87C13200.5 3531.21 12759.2 3286.37 12759.2 3299.53C12759.2 3302.07 12781.2 3357.68 12808.2 3423.1C12907.7 3664.77 12968.1 3836.66 12964 3866C12962.8 3874.07 12958 3878.35 12948.7 3879.37C12941.3 3880.2 12847.5 3848.2 12740.2 3808.25C12633 3768.3 12540.4 3734.29 12534.4 3732.66C12525.8 3730.3 12511 3744 12461.3 3800.66C12427 3839.69 12341.2 3935.89 12270.5 4014.45C12093.7 4211.01 12103.8 4197.69 12103.8 4234.6V4265.25L12126.8 4261.99C12139.5 4260.19 12171.8 4255.16 12198.6 4250.81ZM12109.6 4017.33C12223.5 3881.09 12324.4 3742.18 12384.6 3638.6C12410.8 3593.35 12413 3583.12 12392.2 3602.5C12367.4 3625.66 12333.7 3647.03 12286.7 3669.45C12213 3704.57 12184.7 3710.03 12079.5 3709.46C11975.1 3708.9 11932.8 3700.47 11827.4 3659.19C11706.6 3611.93 11529.9 3498.9 11315.9 3332.02C11223.4 3259.92 11060.5 3088.41 11003.9 3003.73L10987.3 2978.77L10991.1 3000.44C11019.2 3159.06 11118.8 3325.37 11294 3506.11C11398.6 3613.98 11495.2 3693.23 11807.4 3927.14C11921.3 4012.45 12019.3 4086.83 12025.1 4092.44C12031 4098.05 12036.4 4102.63 12037.1 4102.63C12037.7 4102.63 12070.4 4064.25 12109.6 4017.33ZM13438.9 3496.09C13563.4 3325.83 13671.5 3108.62 13727.8 2915.93C13868.1 2435.49 13823.9 1930 13603.8 1497.44C13518.9 1330.51 13400.1 1171.68 13261.6 1039.66C13203.3 984.149 13089.6 888.975 13085.9 892.658C13085 893.619 13086.6 907.614 13089.5 923.758C13107.5 1023.58 13112.6 1101.68 13115.2 1317.51L13117.8 1541.09L13132.5 1548.67C13165.2 1565.62 13201.3 1604.8 13218.5 1642.31C13248.6 1707.44 13258.8 1756.52 13259.4 1838.66C13260 1921.3 13250.3 1965.9 13216.2 2037.57L13197.6 2076.7L13208.9 2129.65C13223.5 2197.8 13228.9 2339.67 13219.9 2417.06C13188.3 2689.23 13024.1 2993.17 12814.2 3168L12776.6 3199.31L12855.9 3238.63C13028.1 3324.04 13195.9 3420.69 13319.8 3505.92C13358.5 3532.57 13391.4 3554.59 13392.9 3554.86C13394.4 3555.13 13415.1 3528.69 13438.9 3496.09ZM12280.4 3509.7C12485.7 3470.45 12613.7 3354.34 12701.5 3127.72C12736.6 3036.9 12738.9 3032.45 12743.7 3044.61C12745.8 3050.1 12747.8 3063.74 12748 3074.91C12748.2 3086.08 12750.6 3095.22 12753.4 3095.22C12762.5 3095.22 12852.1 3007.01 12893.8 2957.11C13002.8 2826.39 13080.8 2664.95 13117.4 2494.02C13127.9 2445.2 13129.6 2420.28 13129.9 2317.99C13130.3 2148.28 13116.6 2087.43 13041.6 1925.32L13000.2 1835.95L12999.7 1597.64C12999.1 1353.7 12994.5 1264.97 12975.5 1134.88C12933.5 847.285 12847.9 674.526 12697.3 573.496L12654.5 544.721L12633.4 568.61C12561.1 650.726 12363.9 716.389 12098.4 746.727C11846.4 775.524 11440.1 770.791 11196.6 736.223C11139.9 728.174 11032.1 709.417 11005.4 702.956L10992.9 699.94L11007.3 720.909C11030.8 755.309 11069.8 836.241 11086.3 884.962C11118.5 979.881 11129.2 1083.69 11115.9 1171.35C11103.7 1251.72 11081.4 1312.32 11020.9 1429.31C10991.4 1486.14 10962.3 1549.35 10956.1 1569.77C10942.2 1615.25 10941.2 1687.16 10952.9 1781.58C10957.4 1817.22 10961 1858.7 10961 1873.77V1901.18L10929.4 1907.19C10912 1910.49 10876 1922.07 10849.5 1932.92C10823 1943.77 10799.3 1953.2 10797 1953.88C10794.7 1954.55 10784.1 1935.61 10773.5 1911.78C10713.1 1775.77 10635.3 1693.48 10550.7 1675.9C10468.9 1658.88 10391 1729.59 10361.4 1847.8C10347 1905.35 10349.5 2011.21 10366.7 2076.97C10412.1 2249.83 10507.8 2386.39 10623.7 2443.69C10655.1 2459.22 10671.3 2463.67 10703.8 2465.76C10741.3 2468.17 10747.2 2467.02 10779.3 2451.23C10798.4 2441.81 10820.4 2426.67 10828 2417.6C10835.6 2408.53 10841.9 2402.18 10841.9 2403.48C10841.9 2415.3 10867.7 2529.79 10880.1 2572.88C10928.8 2742.31 11025.1 2909.89 11155.1 3051.56C11337.5 3250.38 11662.9 3440.84 11915.8 3496.78C12036.8 3523.57 12181.2 3528.68 12280.4 3509.7ZM12140.8 3208.68C12053.8 3196.65 11971.3 3157.43 11920.9 3104.18C11873.2 3053.68 11882.9 3048.79 11965.8 3081.58C12061.1 3119.29 12109.7 3129.53 12193.2 3129.5C12283.3 3129.46 12325.7 3119.34 12424.4 3074.32C12450.6 3062.38 12469.5 3059.56 12474.1 3066.92C12478.6 3074.3 12440.8 3121.16 12411.6 3144.2C12355.9 3188.27 12303.6 3206.88 12223.8 3211.17C12198 3212.55 12160.7 3211.43 12140.8 3208.68ZM12136.3 2972.37C12095.8 2968.18 12008.3 2947.42 11967 2932.2C11745.9 2850.7 11546.9 2657.83 11472.7 2453.4C11467.3 2438.5 11461.1 2424.21 11458.9 2421.63C11447.5 2408.53 11405.9 2459.89 11386.9 2510.58L11374.1 2544.61L11365.5 2531.41C11342 2495.62 11330.3 2433.25 11340.1 2396.39C11355.4 2338.97 11389.9 2316.58 11474.6 2309.23C11574.6 2300.54 11624.8 2284.25 11698.7 2236.41C11720.4 2222.4 11754.6 2194.46 11774.7 2174.31C11807.6 2141.44 11811.4 2139.06 11811.4 2151.18C11811.4 2175.4 11769.3 2247.52 11737.8 2277.33C11709.6 2303.94 11631 2346.84 11593.4 2356.12C11585.2 2358.14 11578.5 2361.85 11578.5 2364.37C11578.5 2370.43 11647.4 2402.92 11722.9 2432.44C11844.7 2480.06 11964.7 2507.62 12111.9 2521.76C12189 2529.17 12339.5 2524.87 12408.7 2513.28C12575 2485.43 12710.3 2421.94 12765.3 2345.94C12795.6 2304.06 12783 2252.04 12730.3 2202.04C12697 2170.46 12716.6 2164.86 12768.9 2190.99C12811 2212.05 12851.8 2255.99 12868 2297.7C12885.4 2342.76 12884.3 2397.71 12865.3 2436.69C12842.2 2483.81 12824.2 2490.37 12824.1 2451.73C12824 2423.74 12818.8 2407.36 12810 2407.36C12797.8 2407.36 12762.3 2447.66 12743.7 2482.65C12734.1 2500.53 12716.5 2541.48 12704.4 2573.64C12654.6 2706.69 12613 2777.37 12545.9 2843.37C12443.9 2943.62 12299.2 2989.2 12136.3 2972.37ZM12290.6 2770.01C12400.7 2757.39 12480.3 2726.07 12539 2672.29C12577.3 2637.21 12603 2600.82 12618.8 2559.18C12624.5 2544.2 12628.4 2531.93 12627.4 2531.93C12626.5 2531.93 12611.2 2538.88 12593.6 2547.38C12548.9 2568.89 12468.2 2594.81 12406.8 2607.34C12191.6 2651.31 11969.8 2624.42 11719.2 2523.96C11670.3 2504.33 11624.3 2484.41 11617.1 2479.7C11604.2 2471.23 11604.1 2471.3 11607.9 2486.64C11617.8 2526.91 11675.8 2601.09 11726.6 2638.54C11855.6 2733.61 12103.6 2791.42 12290.6 2770.01ZM12269 2393.82C12227.2 2384.49 12194.4 2372.54 12164.4 2355.8L12140.5 2342.43L12102.7 2353.9C11999.9 2385.13 11899.2 2341.42 11865 2250.72C11856.7 2228.68 11854.5 2213.48 11856.6 2194.58C11860.2 2163.61 11883.2 2119.16 11905.3 2100.57C11932.2 2077.96 12025.4 2034.62 12032.3 2041.51C12033.7 2042.93 12022.6 2058.19 12007.8 2075.42C11971.1 2117.91 11952.2 2156.59 11952.2 2189.18C11952.2 2254.84 11998.5 2278.54 12102.1 2265.9L12157.3 2259.17L12220.5 2276.96C12278.8 2293.39 12288.3 2294.58 12344 2292.41C12416 2289.6 12452.8 2277.47 12490.8 2244.01C12541.4 2199.43 12557.9 2133.77 12531.9 2080.04C12515.9 2046.98 12491.1 2026.74 12432.5 1998.71C12385.7 1976.35 12381.4 1972.87 12359.3 1939.12C12317.7 1875.59 12296.7 1810.87 12287.9 1719.19C12277.5 1610.07 12304.4 1486.61 12338.5 1486.61C12343.4 1486.61 12344.5 1511.44 12342.9 1585.45C12339.8 1731.37 12354.8 1811.45 12400.7 1895.53L12421.5 1933.44L12474 1955.11C12591 2003.42 12628.3 2056.74 12622.5 2167.53C12620.2 2211.9 12617.4 2223.02 12600.1 2258.15C12586.6 2285.34 12571.2 2306.41 12551.9 2323.81C12482.8 2386.31 12365.4 2415.36 12269 2393.82ZM10685.7 2294.07C10643.3 2251.08 10613.9 2194.75 10610.3 2149.87C10606.6 2104.39 10611.1 2084.54 10633 2048.08L10651.5 2017.37L10638 1993.2C10630.6 1979.9 10613.4 1956.65 10599.8 1941.53C10550 1886.21 10515.7 1884.57 10500.3 1936.76C10497.3 1946.85 10493.8 1986.52 10492.5 2024.91C10491.2 2063.3 10489 2095.8 10487.7 2097.13C10481.6 2103.19 10462.3 2074.62 10454.7 2048.18C10434.6 1979.02 10431.3 1927.92 10444 1879.28C10459.1 1821.43 10489.3 1796.19 10535.2 1803.08C10595.3 1812.09 10668.9 1894.63 10712.6 2002.15C10728.8 2041.87 10761.6 2158.22 10756.6 2158.22C10755.1 2158.22 10745.6 2150.9 10735.4 2141.97C10711.7 2121.11 10688.6 2120.22 10675.9 2139.66C10662.6 2159.99 10673 2208.02 10703.6 2268.04C10717.1 2294.39 10728.1 2318.23 10728.1 2321.03C10728.1 2332.43 10715.6 2324.48 10685.7 2294.07ZM11302.2 1961.74C11302.2 1950.75 11331.7 1926.17 11359.8 1913.66C11372.1 1908.2 11403.8 1897.99 11430.2 1890.99L11478.3 1878.25L11481.7 1840.85C11489.1 1760.46 11517.6 1699.24 11570.8 1649.45C11684.4 1543.19 11854.9 1551.99 11922.3 1667.6C11946 1708.18 11968.6 1816.99 11953.3 1816.99C11950.9 1816.99 11946.2 1806.64 11942.7 1793.98C11932.2 1755.55 11897.8 1703.61 11867.9 1680.93C11833.3 1654.75 11802.1 1643.65 11763.3 1643.76C11717.3 1643.88 11710.7 1652.26 11741.2 1671.67C11760.9 1684.13 11787.8 1737.73 11795.5 1779.74C11803.5 1822.74 11796.4 1891.7 11780.8 1923.57L11770.7 1944.28L11602.8 1947.64C11510.5 1949.49 11416.6 1953.66 11394.3 1956.92C11298.5 1970.9 11302.2 1970.7 11302.2 1961.74ZM12476.4 1876.57C12457.3 1832.27 12449.7 1793.43 12446.7 1724.92C12444.3 1671.99 12445.6 1649.64 12452.6 1622.5C12477.2 1526.62 12571.5 1459.15 12658.4 1475.21C12756.5 1493.35 12809.9 1565.59 12822.1 1696.72C12826.8 1747.77 12818 1748.12 12802 1697.53C12785.5 1645.1 12761.5 1607.27 12729.4 1582.85C12686.7 1550.37 12644.4 1543.45 12615.9 1564.27C12606.8 1570.96 12607.3 1573 12625.2 1598.05C12668 1658.29 12683.4 1708.84 12685 1794.47C12685.9 1841.09 12687.6 1852.24 12694.2 1853.01C12762 1860.96 12798.7 1868.45 12813.4 1877.39C12847.1 1897.9 12830.4 1900.32 12652.8 1900.64L12486.8 1900.95L12476.4 1876.57ZM11294 1567.75C11289 1559.52 11302 1497.68 11316.3 1462.64C11365.7 1341.12 11464.7 1265.94 11624.5 1228.62C11658.8 1220.62 11689.3 1218.5 11770.7 1218.5C11862.5 1218.5 11877.9 1219.83 11912.5 1230.74C12003 1259.17 12049.8 1334.32 12007.9 1384.01L11993.3 1401.4L11941.6 1398.08C11913.2 1396.25 11863.6 1392.26 11831.6 1389.21C11739.7 1380.48 11618.9 1394.54 11525.8 1424.84C11447.8 1450.19 11359.8 1503.53 11316.1 1551.97C11305.7 1563.46 11295.8 1570.56 11294 1567.75ZM12883.7 1353.89C12864.4 1340.92 12829 1322.37 12805.2 1312.67C12768.2 1297.59 12753.6 1294.7 12704.9 1292.77C12621.9 1289.48 12572.3 1299.91 12439.9 1348.48C12408.3 1360.06 12393.7 1353.74 12385 1324.76C12380 1308.07 12380 1297.36 12385.1 1277.12C12403.1 1204.69 12453.5 1162.25 12564.2 1126.26C12601.1 1114.25 12621 1111.18 12664.6 1110.73C12717.3 1110.2 12720.4 1110.83 12761.3 1131.04C12834.7 1167.31 12899.3 1244.48 12919.4 1320.14C12927.7 1351.21 12929.4 1378.51 12923 1377.88C12920.8 1377.65 12903.1 1366.86 12883.7 1353.89ZM10377.8 3336.86C10482.6 3264.74 10636.7 3173.48 10747.7 3117.9L10802.4 3090.47L10814.9 3058.99C10831.7 3016.82 10865.4 2949.1 10892 2904.11L10913.7 2867.36L10888.4 2813.5C10857.3 2747.45 10825.1 2661.4 10811.9 2609.53L10802.1 2570.67L10754.6 2573.75C10698.3 2577.39 10652.6 2569.58 10605.6 2548.28C10449 2477.26 10324.1 2297.1 10275.3 2071.56C10260.2 2001.88 10261.4 1878.24 10277.8 1817.16C10302.3 1725.94 10358.8 1643.37 10424.5 1602.81C10455.9 1583.42 10456 1583.32 10451.6 1563.42C10435.2 1489.52 10420.7 1257.64 10428.9 1200.9C10431.6 1182.28 10432.4 1167.06 10430.7 1167.07C10420.3 1167.14 10326.4 1297.95 10276.1 1382.62C10047.9 1766.07 9966.55 2217.06 10041 2686.3C10066.4 2846.58 10128.1 3043.32 10197.3 3184.59C10237.8 3267.31 10302.7 3382.28 10308.9 3382.28C10310.5 3382.28 10341.5 3361.84 10377.8 3336.86ZM13170.6 1932.87C13192.3 1862.48 13180.8 1742.25 13146.9 1684.76C13139.7 1672.59 13125 1654.13 13114.2 1643.74C13098.4 1628.57 13093.6 1626.37 13089.7 1632.58C13082.3 1644.57 13077 1726.25 13080 1783.02C13082.4 1829.16 13084.7 1838.15 13103.1 1873.03C13114.3 1894.34 13129.8 1924.57 13137.4 1940.21C13145 1955.85 13153.1 1968.65 13155.4 1968.65C13157.7 1968.65 13164.5 1952.55 13170.6 1932.87Z" fill="white"/>
<path d="M1401.5 3587.46C636.09 3587.46 122.325 3108.64 122.325 2280.32C122.325 1455.5 636.09 976.69 1401.5 976.69C2055.06 976.69 2519.9 1340.17 2589.8 1885.39H2037.59C1974.67 1623.26 1737.02 1441.52 1401.5 1441.52C964.62 1441.52 685.02 1721.12 685.02 2280.32C685.02 2846.51 964.62 3122.62 1401.5 3122.62C1726.53 3122.62 1981.67 2944.37 2037.59 2675.26H2589.8C2526.89 3223.97 2044.58 3587.46 1401.5 3587.46ZM3576.5 3587.46C3129.14 3587.46 2828.57 3262.42 2828.57 2619.34C2828.57 1972.76 3129.14 1647.73 3576.5 1647.73C3866.59 1647.73 4083.28 1791.03 4170.65 2007.71H4198.61L4219.58 1682.68H4712.38V3556H4198.61V3227.47H4170.65C4083.28 3444.16 3866.59 3587.46 3576.5 3587.46ZM3772.22 3171.55C4058.81 3171.55 4191.62 2947.87 4191.62 2706.71V2528.47C4191.62 2287.31 4058.81 2063.63 3772.22 2063.63C3520.58 2063.63 3352.82 2238.38 3352.82 2619.34C3352.82 2996.8 3520.58 3171.55 3772.22 3171.55ZM5152.09 3556V1682.68H5616.93L5637.9 1983.25H5655.37C5739.25 1742.09 5934.97 1658.21 6172.63 1658.21C6214.57 1658.21 6246.03 1658.21 6277.48 1658.21V2140.52C6253.02 2140.52 6207.58 2140.52 6162.15 2140.52C5816.14 2140.52 5672.85 2297.8 5665.86 2577.4V3556H5152.09ZM6548.05 3556V1008.14H7061.81V3556H6548.05ZM7503.71 1441.52V1008.14H8017.48V1441.52H7503.71ZM7503.71 3556V1682.68H8017.48V3556H7503.71ZM9077.99 3556C8697.03 3556 8599.17 3381.25 8599.17 3098.15V2095.09H8263.65V1682.68H8599.17V1172.41L9109.44 1123.48V1682.68H9486.9V2095.09H9109.44V3000.29C9109.44 3112.13 9161.87 3140.09 9259.73 3140.09H9486.9V3556H9077.99ZM14135.6 2067.13V1808.5H14202C14355.8 1805 14411.7 1728.11 14411.7 1602.29V1479.97H14188.1V1008.14H14680.9V1623.26C14680.9 1951.79 14520.1 2060.14 14265 2063.63L14135.6 2067.13ZM15530.9 3590.95C15020.6 3590.95 14706 3339.31 14709.5 2961.85H15212.8C15216.3 3147.08 15349.1 3227.47 15544.8 3227.47C15733.6 3227.47 15831.4 3154.07 15831.4 3031.75C15831.4 2884.96 15733.6 2853.5 15471.4 2815.06C14985.6 2741.66 14755 2608.85 14755 2245.37C14755 1885.39 15073 1647.73 15548.3 1647.73C16006.2 1647.73 16306.7 1881.89 16317.2 2241.88H15810.5C15810.5 2081.11 15702.1 2007.71 15534.3 2007.71C15370.1 2007.71 15268.7 2077.61 15268.7 2199.94C15268.7 2336.24 15384.1 2378.18 15677.6 2416.63C16139 2476.04 16355.7 2619.34 16355.7 2986.31C16355.7 3374.26 16027.1 3590.95 15530.9 3590.95ZM18383 3587.46C17694.5 3587.46 17331 3251.93 17331 2755.64H17883.2C17890.2 3007.28 18040.5 3171.55 18404 3171.55C18683.6 3171.55 18865.3 3070.19 18865.3 2867.48C18865.3 2622.83 18732.5 2570.41 18271.2 2493.52C17684 2402.65 17383.4 2196.44 17383.4 1752.58C17383.4 1273.76 17760.9 976.69 18379.5 976.69C18977.2 976.69 19351.1 1280.75 19354.6 1735.1H18805.9C18795.4 1486.96 18603.2 1389.1 18362 1389.1C18106.9 1389.1 17949.6 1500.94 17949.6 1682.68C17949.6 1916.84 18124.4 1948.3 18564.8 2021.69C18991.1 2088.1 19431.5 2199.94 19431.5 2815.06C19431.5 3272.9 19078.5 3587.46 18383 3587.46ZM19784 3556V1682.68H20276.8L20297.8 2021.69H20318.7C20420.1 1773.55 20650.8 1647.73 20916.4 1647.73C21290.3 1647.73 21576.9 1860.92 21576.9 2423.62V3556H21063.2V2535.46C21063.2 2220.91 20958.3 2067.13 20710.2 2067.13C20444.5 2067.13 20297.8 2276.83 20297.8 2514.49V3556H19784ZM22635.2 3587.46C22187.8 3587.46 21887.2 3262.42 21887.2 2619.34C21887.2 1972.76 22187.8 1647.73 22635.2 1647.73C22925.3 1647.73 23142 1791.03 23229.3 2007.71H23257.3L23278.3 1682.68H23771.1V3556H23257.3V3227.47H23229.3C23142 3444.16 22925.3 3587.46 22635.2 3587.46ZM22830.9 3171.55C23117.5 3171.55 23250.3 2947.87 23250.3 2706.71V2528.47C23250.3 2287.31 23117.5 2063.63 22830.9 2063.63C22579.3 2063.63 22411.5 2238.38 22411.5 2619.34C22411.5 2996.8 22579.3 3171.55 22830.9 3171.55ZM25004.7 3587.46C24442 3587.46 24075 3203 24075 2619.34C24075 2032.18 24445.5 1647.73 25022.2 1647.73C25504.5 1647.73 25850.5 1941.31 25871.5 2364.2H25368.2C25336.7 2168.48 25193.4 2067.13 25008.2 2067.13C24735.6 2067.13 24595.8 2283.82 24595.8 2619.34C24595.8 2986.31 24760.1 3168.05 25004.7 3168.05C25221.4 3168.05 25354.2 3045.73 25375.2 2863.99H25875C25854 3304.36 25497.5 3587.46 25004.7 3587.46ZM26190.4 3556V1008.14H26711.1V2458.57L26864.9 2280.32L27420.6 1682.68H28053.2L27333.2 2423.62L28067.2 3556H27462.5L27081.6 2961.85L26969.7 2766.13L26711.1 3021.26V3556H26190.4ZM28995.5 3590.95C28485.2 3590.95 28170.7 3339.31 28174.1 2961.85H28677.4C28680.9 3147.08 28813.7 3227.47 29009.5 3227.47C29198.2 3227.47 29296 3154.07 29296 3031.75C29296 2884.96 29198.2 2853.5 28936.1 2815.06C28450.3 2741.66 28219.6 2608.85 28219.6 2245.37C28219.6 1885.39 28537.6 1647.73 29012.9 1647.73C29470.8 1647.73 29771.4 1881.89 29781.8 2241.88H29275.1C29275.1 2081.11 29166.7 2007.71 28999 2007.71C28834.7 2007.71 28733.3 2077.61 28733.3 2199.94C28733.3 2336.24 28848.7 2378.18 29142.3 2416.63C29603.6 2476.04 29820.3 2619.34 29820.3 2986.31C29820.3 3374.26 29491.8 3590.95 28995.5 3590.95Z" fill="white"/>
</svg>
