<svg width="17801" height="19464" viewBox="0 0 17801 19464" fill="none" xmlns="http://www.w3.org/2000/svg">
<path d="M8022 19436C6351.56 19245.9 4879.26 18670 3597.51 17705.3C2721.26 17045.8 1876.58 16123.1 1306.48 15202.6C775.126 14344.6 334.582 13209 152.927 12228.9C46.4851 11654.6 16.2121 11340.5 3.32785 10676.6C-14.1504 9775.94 35.079 9223.53 201.999 8447.2C514.665 6993.02 1346.43 5389.9 2291.99 4419.01C2513.25 4191.82 2515.41 4188.43 2595.75 3941.82C2726.1 3541.7 3014.5 3112.68 3329.8 2849.87C3440.23 2757.82 3497 2686.59 3556.67 2565.19C4036.08 1589.93 5859.93 582.409 7872.6 181.004C8646.31 26.6963 8903.3 0.775887 9666.93 0.0269567C10223 -0.518574 10379.3 6.99447 10558.1 42.868C10852.2 101.891 11252.5 217.991 11411.4 290.325C11620.9 385.753 11927.6 602.047 12062.2 749.295C12259.7 965.399 12424.7 1332.82 12424.7 1556.63C12424.7 1627.55 12435.4 1673.29 12452 1673.29C12498 1673.29 12913.2 1880.34 13002.7 1947.95C13163.4 2069.33 13394.1 2312.38 13508 2480.34C13630.7 2661.25 13797.2 2979.51 13842.9 3120.46C13865.1 3188.99 13911.8 3234.78 14069 3342.21C14686.5 3764.15 15528.5 4543.17 15974.9 5105.43C16998.2 6394.47 17597.5 7894.95 17773.7 9609.37C17814.8 10009.5 17808.4 10988.3 17761.8 11423.1C17510.5 13767.7 16391.3 15889.2 14626.5 17366.1C13271.8 18499.8 11753.3 19169.1 9980.03 19413.8C9580.55 19469 8426.5 19482 8022 19436ZM9337.37 18834.7L9328.76 18678.9L8594.66 18153.3C8190.9 17864.2 7638.37 17463.6 7366.81 17263C6944.6 16951.1 6867.05 16902.4 6831.51 16926.8C6808.65 16942.5 6578.25 17101.7 6319.51 17280.5C6060.77 17459.4 5735.04 17684.2 5595.67 17780.3C5333.04 17961.3 5258.34 17985.4 5191.13 17911.2C5147.93 17863.4 4877.88 17184.6 4489.91 16148.5C4140.15 15214.5 4027.32 14886.7 3854.05 14301.1C3839.25 14251.1 3810.61 14264.4 3346.55 14536.5C2885.14 14807 2137.24 15266.4 2033.8 15342.9C1988.95 15376.1 1990.29 15381.3 2074.97 15503.9C2366.34 15925.9 3141.36 16739.9 3609.55 17115.7C4619.37 17926.2 5713.66 18462.8 6965.37 18761.1C7636.48 18921 8164.75 18983.5 8880.24 18987.8L9345.98 18990.6L9337.37 18834.7ZM10172.7 18902.8C11156.2 18743.1 12277.5 18338.2 13138.2 17831.8C13810.5 17436.3 14348.2 17016.7 14912.9 16446.7L15240.9 16115.6L15121 16034.9C14628 15702.9 12665.5 14614.1 12665.5 14672.6C12665.5 14683.9 12763.5 14931.2 12883.3 15222.1C13325.9 16296.8 13594.8 17061.2 13576.2 17191.6C13571.1 17227.5 13549.4 17246.5 13508.5 17251.1C13475.4 17254.8 13058.1 17112.5 12581.2 16934.8C12104.3 16757.2 11692.5 16605.9 11666 16598.7C11627.5 16588.2 11562 16649.1 11340.8 16901.1C11188.5 17074.7 10806.8 17502.5 10492.6 17851.8C9706.39 18725.8 9751.23 18666.6 9751.23 18830.8V18967.1L9853.59 18952.6C9909.89 18944.6 10053.5 18922.2 10172.7 18902.8ZM9777.01 17864.6C10283.6 17258.7 10732 16641 10999.6 16180.4C11116.5 15979.2 11126.2 15933.7 11033.8 16019.9C10923.3 16122.9 10773.5 16217.9 10564.3 16317.6C10236.7 16473.8 10111 16498.1 9642.84 16495.5C9178.72 16493 8990.75 16455.5 8521.81 16272C7984.77 16061.8 7199.07 15559.2 6247.39 14817.1C5836.22 14496.5 5111.51 13733.8 4860.15 13357.2L4786.09 13246.2L4803.13 13342.6C4927.89 14047.9 5370.92 14787.5 6150.11 15591.3C6615.14 16070.9 7044.91 16423.4 8433.2 17463.5C8939.55 17842.9 9375.2 18173.7 9401.33 18198.6C9427.45 18223.5 9451.31 18243.9 9454.34 18243.9C9457.37 18243.9 9602.57 18073.2 9777.01 17864.6ZM15688.2 15546.7C16241.7 14789.6 16722.7 13823.7 16972.9 12966.8C17596.8 10830.3 17400.3 8582.47 16421.5 6658.93C16043.8 5916.63 15515.8 5210.34 14899.7 4623.23C14640.7 4376.39 14134.9 3953.16 14118.5 3969.54C14114.2 3973.82 14121.4 4036.05 14134.3 4107.84C14214.6 4551.73 14237.2 4899.04 14248.6 5858.82L14260.3 6853.06L14325.5 6886.75C14471.2 6962.12 14631.4 7136.35 14708.3 7303.16C14841.7 7592.76 14887.1 7811.02 14889.8 8176.3C14892.6 8543.77 14849.5 8742.11 14697.9 9060.84L14615.2 9234.85L14665.5 9470.28C14730.3 9773.34 14754.5 10404.2 14714.5 10748.4C14573.8 11958.7 13843.5 13310.3 12910.2 14087.7L12743.1 14227L13095.7 14401.8C13861.6 14781.6 14607.4 15211.4 15158.3 15590.4C15330.5 15708.9 15476.8 15806.8 15483.5 15808C15490.1 15809.3 15582.2 15691.7 15688.2 15546.7ZM10536.6 15607.2C11449.6 15432.7 12018.7 14916.3 12408.8 13908.6C12565.1 13504.7 12575.2 13484.9 12596.5 13539C12606.1 13563.4 12614.7 13624.1 12615.6 13673.8C12616.6 13723.4 12627.5 13764.1 12639.8 13764.1C12680.2 13764.1 13078.8 13371.8 13264 13149.9C13749.1 12568.6 14095.8 11850.7 14258.5 11090.6C14305 10873.5 14312.8 10762.7 14314 10307.8C14315.9 9553.14 14255.1 9282.56 13921.3 8561.67L13737.3 8164.26L13734.9 7104.51C13732.4 6019.75 13711.8 5625.17 13627.3 5046.7C13440.7 3767.78 13060.1 2999.54 12390.5 2550.27L12199.8 2422.31L12106.3 2528.54C11784.9 2893.7 10907.8 3185.7 9727.14 3320.6C8606.4 3448.66 6799.54 3427.62 5716.99 3273.9C5464.93 3238.1 4985.52 3154.69 4866.73 3125.96L4811.28 3112.55L4875.09 3205.8C4979.76 3358.77 5153.13 3718.67 5226.51 3935.32C5369.48 4357.42 5417.18 4819.06 5358.11 5208.84C5303.95 5566.24 5204.65 5835.74 4935.43 6355.96C4804.63 6608.7 4674.99 6889.79 4647.33 6980.6C4585.73 7182.84 4580.99 7502.6 4633.36 7922.49C4653.12 8080.95 4669.29 8265.43 4669.29 8332.45V8454.3L4528.65 8481.03C4451.3 8495.73 4291.44 8547.23 4173.4 8595.46C4055.36 8643.7 3950.32 8685.64 3939.98 8688.65C3929.64 8691.67 3882.63 8607.43 3835.53 8501.45C3566.68 7896.65 3221.07 7530.72 2844.85 7452.52C2480.71 7376.84 2134.45 7691.26 2003 8216.96C1939.02 8472.87 1949.93 8943.62 2026.64 9236.05C2228.25 10004.7 2653.79 10612 3169.37 10866.8C3309.07 10935.9 3380.95 10955.7 3525.4 10964.9C3692.1 10975.6 3718.62 10970.5 3861.21 10900.3C3946.36 10858.4 4043.79 10791.1 4077.72 10750.8C4111.66 10710.5 4139.42 10682.2 4139.42 10688C4139.42 10740.6 4254.28 11249.7 4309.36 11441.3C4525.96 12194.7 4954.07 12939.9 5532.21 13569.9C6343.58 14454 7790.68 15301 8914.91 15549.8C9453.14 15668.9 10095.2 15691.6 10536.6 15607.2ZM9915.73 14268.6C9528.91 14215.1 9161.95 14040.7 8937.99 13803.9C8725.58 13579.3 8768.62 13557.6 9137.27 13703.4C9561.18 13871.1 9777.42 13916.7 10148.6 13916.5C10549.3 13916.3 10737.9 13871.3 11176.9 13671.1C11293.4 13618 11377.5 13605.5 11397.7 13638.2C11418 13671 11249.5 13879.4 11119.9 13981.9C10872 14177.8 10639.8 14260.6 10284.7 14279.7C10170.1 14285.8 10004.1 14280.9 9915.73 14268.6ZM9895.74 13217.8C9715.5 13199.2 9326.23 13106.8 9142.7 13039.2C8159.73 12676.7 7274.43 11819.1 6944.89 10910C6920.88 10843.7 6893.1 10780.2 6883.16 10768.7C6832.66 10710.4 6647.86 10938.8 6563.13 11164.2L6506.24 11315.6L6467.78 11256.9C6363.5 11097.7 6311.44 10820.4 6355.08 10656.5C6423.06 10401.1 6576.65 10301.5 6953.07 10268.9C7397.89 10230.2 7620.9 10157.8 7949.76 9945.05C8046.04 9882.76 8198.12 9758.49 8287.72 9668.89C8433.9 9522.71 8450.64 9512.14 8450.64 9566.04C8450.64 9673.77 8263.58 9994.48 8123.44 10127C7998.32 10245.3 7648.61 10436.1 7481.22 10477.4C7444.79 10486.4 7414.98 10502.9 7414.98 10514.1C7414.98 10541 7721.61 10685.5 8057.34 10816.8C8598.91 11028.5 9132.67 11151.1 9787.35 11214C10130.2 11246.9 10799.4 11227.8 11106.9 11176.3C11846.3 11052.4 12448 10770.1 12692.8 10432.1C12827.7 10245.9 12771.4 10014.6 12537.1 9792.22C12389.1 9651.76 12476 9626.87 12708.5 9743.08C12896 9836.73 13077.4 10032.1 13149.2 10217.6C13226.8 10418 13222 10662.3 13137.2 10835.7C13034.7 11045.2 12954.8 11074.4 12954.2 10902.5C12953.7 10778.1 12930.6 10705.3 12891.5 10705.3C12837.3 10705.3 12679.4 10884.4 12596.5 11040C12554.1 11119.5 12475.6 11301.6 12422 11444.7C12200.3 12036.3 12015.5 12350.6 11717 12644.1C11263.5 13089.9 10620 13292.6 9895.74 13217.8ZM10581.6 12317.9C11071.4 12261.8 11425.5 12122.5 11686.5 11883.3C11856.7 11727.4 11970.9 11565.5 12041.2 11380.4C12066.6 11313.7 12083.8 11259.2 12079.6 11259.2C12075.4 11259.2 12007.7 11290.1 11929.2 11327.9C11730.4 11423.5 11371.4 11538.8 11098.7 11594.5C10141.7 11790.1 9155.27 11670.5 8041.07 11223.8C7823.24 11136.4 7618.88 11047.9 7586.92 11026.9C7529.45 10989.3 7529.01 10989.6 7545.81 11057.8C7589.91 11236.9 7847.72 11566.8 8073.67 11733.3C8647.38 12156 9750.21 12413.1 10581.6 12317.9ZM10485.8 10645.1C10300 10603.5 10153.8 10550.4 10020.6 10476L9914.28 10416.5L9746.39 10467.5C9289.19 10606.4 8841.44 10412 8689.38 10008.7C8652.44 9910.7 8642.32 9843.1 8652.03 9759.04C8667.93 9621.33 8770.32 9423.66 8868.58 9340.98C8988.08 9240.43 9402.3 9047.69 9432.98 9078.37C9439.26 9084.65 9390.24 9152.51 9324.03 9229.16C9160.86 9418.08 9076.82 9590.12 9076.94 9735.02C9077.15 10027 9283.09 10132.4 9743.66 10076.2L9988.98 10046.3L10269.9 10125.4C10529.2 10198.4 10571.5 10203.7 10819.4 10194.1C11139.3 10181.6 11302.9 10127.6 11472 9978.84C11697.2 9780.59 11770.4 9488.6 11654.7 9249.69C11583.5 9102.66 11473.5 9012.67 11212.7 8888.03C11004.5 8788.57 10985.5 8773.12 10887.2 8623.04C10702.2 8340.54 10608.8 8052.71 10570 7645.03C10523.7 7159.78 10643.2 6610.76 10794.9 6610.76C10816.4 6610.76 10821.3 6721.21 10814.4 7050.32C10800.8 7699.18 10867.2 8055.29 11071.6 8429.2L11163.7 8597.79L11397.1 8694.13C11917.7 8908.98 12083.5 9146.09 12057.7 9638.74C12047.4 9836.04 12035.1 9885.52 11957.9 10041.7C11898.2 10162.6 11829.5 10256.3 11743.9 10333.7C11436.3 10611.6 10914.4 10740.8 10485.8 10645.1ZM3444.83 10201.5C3256.61 10010.3 3125.68 9759.8 3109.66 9560.23C3093.42 9357.95 3113.14 9269.7 3210.76 9107.59L3293 8971.01L3232.92 8863.51C3199.87 8804.38 3123.37 8700.99 3062.91 8633.75C2841.76 8387.77 2689.21 8380.46 2620.56 8612.54C2607.28 8657.42 2591.67 8833.82 2585.85 9004.54C2580.04 9175.26 2570.46 9319.78 2564.56 9325.68C2537.58 9352.66 2451.77 9225.57 2417.6 9108.02C2328.19 8800.47 2313.85 8573.24 2370.19 8356.92C2437.2 8099.66 2571.55 7987.44 2775.83 8018.07C3043.03 8058.14 3370.19 8425.2 3564.84 8903.32C3636.75 9079.95 3782.39 9597.33 3760.2 9597.33C3753.7 9597.33 3711.35 9564.82 3666.09 9525.07C3560.46 9432.33 3458.1 9428.35 3401.46 9514.79C3342.21 9605.22 3388.34 9818.79 3524.76 10085.7C3584.64 10202.9 3633.64 10308.9 3633.64 10321.3C3633.64 10372 3577.96 10336.7 3444.83 10201.5ZM6186.65 8723.63C6186.65 8674.76 6317.56 8565.44 6442.66 8509.84C6497.37 8485.53 6638.26 8440.14 6755.77 8408.99L6969.41 8352.34L6984.7 8186.05C7017.57 7828.55 7144.32 7556.3 7380.98 7334.91C7886.11 6862.39 8644.41 6901.53 8944.19 7415.6C9049.44 7596.09 9149.7 8079.96 9081.84 8079.96C9071.34 8079.96 9050.16 8033.9 9034.77 7977.6C8988.05 7806.73 8835.18 7575.76 8702.05 7474.91C8548.37 7358.48 8409.49 7309.13 8236.87 7309.6C8032.33 7310.16 8002.92 7347.41 8138.85 7433.71C8226.11 7489.11 8345.85 7727.47 8380.27 7914.28C8415.5 8105.51 8384.2 8412.14 8314.98 8553.88L8270 8645.96L7523.37 8660.91C7112.72 8669.13 6695.44 8687.71 6596.09 8702.2C6169.9 8764.35 6186.65 8763.47 6186.65 8723.63ZM11407.9 8344.9C11323.3 8147.91 11289.4 7975.17 11275.8 7670.51C11265.4 7435.15 11271.1 7335.76 11302.1 7215.08C11411.7 6788.69 11831 6488.66 12217.4 6560.09C12653.7 6640.75 12891.1 6961.98 12945.3 7545.11C12966.4 7772.12 12927.1 7773.7 12856.1 7548.7C12782.5 7315.58 12675.9 7147.34 12533 7038.74C12343 6894.32 12155.1 6863.55 12028.5 6956.13C11987.8 6985.86 11990.3 6994.94 12069.6 7106.35C12260.2 7374.2 12328.7 7599.02 12335.7 7979.81C12339.5 8187.12 12347.2 8236.7 12376.5 8240.12C12678.3 8275.46 12841.2 8308.78 12906.6 8348.55C13056.5 8439.74 12982.2 8450.5 12192.6 8451.94L11454.4 8453.28L11407.9 8344.9ZM6150.25 6971.6C6127.64 6935.01 6185.82 6660.02 6249.14 6504.19C6468.72 5963.79 6909.01 5629.48 7619.71 5463.53C7772.13 5427.94 7907.99 5418.54 8270 5418.54C8677.95 5418.54 8746.39 5424.45 8900.63 5472.94C9302.82 5599.39 9510.81 5933.56 9324.88 6154.53L9259.8 6231.87L9029.84 6217.08C8903.35 6208.95 8683.16 6191.21 8540.51 6177.65C8131.8 6138.82 7594.97 6201.37 7180.71 6336.1C6834.05 6448.84 6442.86 6686.01 6248.25 6901.42C6202.08 6952.53 6157.98 6984.11 6150.25 6971.6ZM13219.5 6020.58C13133.4 5962.9 12976.2 5880.42 12870.2 5837.29C12705.5 5770.24 12640.8 5757.4 12424.1 5748.8C12055.1 5734.15 11834.3 5780.56 11245.5 5996.54C11105.2 6048 11040.3 6019.9 11001.7 5891.04C10979.4 5816.84 10979.5 5769.22 11001.9 5679.19C11082.3 5357.1 11306.4 5168.37 11798.5 5008.35C11962.8 4954.92 12050.9 4941.29 12245.1 4939.31C12479.5 4936.91 12492.9 4939.74 12674.9 5029.61C13001.5 5190.87 13288.4 5534.05 13378 5870.5C13414.8 6008.68 13422.4 6130.08 13394.1 6127.25C13384.1 6126.26 13305.6 6078.26 13219.5 6020.58ZM2075.8 14838.6C2541.73 14517.9 3227.26 14112.1 3720.56 13864.9L3964.03 13743L4019.64 13603C4094.17 13415.4 4244 13114.3 4362.34 12914.2L4459.01 12750.8L4346.34 12511.3C4208.19 12217.6 4064.73 11834.9 4006.28 11604.3L3962.49 11431.5L3751.55 11445.1C3501.1 11461.4 3297.7 11426.6 3088.79 11331.9C2392.28 11016.1 1837.12 10214.9 1619.8 9211.97C1552.67 8902.14 1558.14 8352.31 1631.07 8080.68C1739.96 7675.06 1991.31 7307.85 2283.51 7127.49C2423.18 7041.28 2423.49 7040.83 2403.85 6952.36C2330.88 6623.73 2266.49 5592.56 2303.18 5340.27C2315.22 5257.47 2318.74 5189.77 2311 5189.82C2264.72 5190.12 1847.38 5771.83 1623.34 6148.33C608.595 7853.52 247.008 9858.99 578.082 11945.6C691.169 12658.4 965.598 13533.3 1273.11 14161.5C1453.2 14529.4 1741.81 15040.6 1769.4 15040.6C1776.56 15040.6 1914.44 14949.7 2075.8 14838.6ZM14495 8595.26C14591.7 8282.21 14540.6 7747.58 14389.6 7491.95C14357.6 7437.82 14292.1 7355.72 14244.1 7309.51C14173.9 7242.06 14152.5 7232.27 14135.4 7259.88C14102.5 7313.2 14079 7676.44 14092.2 7928.9C14102.9 8134.04 14113.2 8174.03 14194.9 8329.13C14244.9 8423.91 14313.4 8558.35 14347.2 8627.9C14381 8697.45 14417.1 8754.35 14427.3 8754.35C14437.5 8754.35 14468 8682.76 14495 8595.26Z" fill="#09112A"/>
</svg>
